<svg width="25" height="24" viewBox="0 0 25 24" fill="none" xmlns="http://www.w3.org/2000/svg">
<g id="gallery">
<path id="photo.on.rectangle" d="M9.49609 20.3873C8.75746 20.3873 8.20064 20.1998 7.82564 19.8248C7.45064 19.4555 7.26314 18.893 7.26314 18.1373L10.033 15.6998C10.1921 15.5691 10.3512 15.4697 10.5103 15.4015C10.6694 15.3333 10.8285 15.2993 10.9876 15.2993C11.1637 15.2993 11.337 15.3333 11.5075 15.4015C11.6779 15.464 11.8427 15.5691 12.0018 15.7169L13.3398 16.9271L16.6978 13.9527C16.8683 13.7993 17.0444 13.6885 17.2262 13.6203C17.408 13.5521 17.604 13.518 17.8143 13.518C18.0131 13.518 18.2063 13.5549 18.3938 13.6288C18.587 13.7027 18.766 13.8135 18.9308 13.9612L22.8853 17.6771V18.1544C22.8853 18.9044 22.695 19.464 22.3143 19.8333C21.9393 20.2027 21.3853 20.3873 20.6523 20.3873H9.49609ZM12.7773 14.1402C12.2773 14.1402 11.854 13.964 11.5075 13.6118C11.1609 13.2538 10.9876 12.8277 10.9876 12.3333C10.9876 11.8504 11.1609 11.4328 11.5075 11.0805C11.854 10.7225 12.2773 10.5436 12.7773 10.5436C13.1012 10.5436 13.3967 10.626 13.6637 10.7907C13.9364 10.9555 14.1523 11.1743 14.3114 11.447C14.4762 11.7197 14.5586 12.0152 14.5586 12.3333C14.5586 12.8277 14.3825 13.2538 14.0302 13.6118C13.6836 13.964 13.266 14.1402 12.7773 14.1402ZM4.97905 16.9697C4.05859 16.9697 3.36257 16.7368 2.89098 16.2708C2.41939 15.8049 2.18359 15.1146 2.18359 14.1998V6.10323C2.18359 5.19414 2.41939 4.50664 2.89098 4.04073C3.36257 3.56914 4.05859 3.33334 4.97905 3.33334H16.6126C17.533 3.33334 18.229 3.56914 18.7006 4.04073C19.1779 4.50664 19.4165 5.19414 19.4165 6.10323V8.02937H17.7376V6.25664C17.7376 5.84187 17.6296 5.53221 17.4137 5.32766C17.2035 5.11743 16.9023 5.01232 16.5103 5.01232H5.08132C4.68359 5.01232 4.37962 5.11743 4.16939 5.32766C3.96484 5.53221 3.86257 5.84187 3.86257 6.25664V14.0635C3.86257 14.4725 3.96484 14.7822 4.16939 14.9924C4.37962 15.197 4.68359 15.2993 5.08132 15.2993H7.22053V16.9697H4.97905ZM9.29155 21.0265C8.37109 21.0265 7.67507 20.7907 7.20348 20.3191C6.73189 19.8532 6.49609 19.1657 6.49609 18.2566V10.16C6.49609 9.24528 6.73189 8.55493 7.20348 8.08903C7.67507 7.62312 8.37109 7.39016 9.29155 7.39016H20.9251C21.8398 7.39016 22.533 7.62596 23.0046 8.09755C23.4819 8.56346 23.7205 9.25096 23.7205 10.16V18.2566C23.7205 19.1657 23.4819 19.8532 23.0046 20.3191C22.533 20.7907 21.8398 21.0265 20.9251 21.0265H9.29155ZM9.39382 19.3475H20.8143C21.2063 19.3475 21.5103 19.2453 21.7262 19.0407C21.9421 18.8362 22.0501 18.5265 22.0501 18.1118V10.3049C22.0501 9.89016 21.9421 9.5805 21.7262 9.37596C21.5103 9.16573 21.2063 9.06062 20.8143 9.06062H9.39382C8.99609 9.06062 8.69212 9.16573 8.48189 9.37596C8.27166 9.5805 8.16655 9.89016 8.16655 10.3049V18.1118C8.16655 18.5265 8.27166 18.8362 8.48189 19.0407C8.69212 19.2453 8.99609 19.3475 9.39382 19.3475Z" fill="white"/>
</g>
</svg>
