<svg width="25" height="24" viewBox="0 0 25 24" fill="none" xmlns="http://www.w3.org/2000/svg">
<g id="Group 1476">
<path id="Vector" d="M6.96264 11.7273C7.10157 8.63597 9.59056 6.14724 12.6819 6.00805V0.000488281C6.28026 0.144217 1.09881 5.3254 0.955078 11.7273H6.96264Z" fill="white"/>
<path id="Vector_2" d="M12.6819 23.9992V17.9917C9.59056 17.8527 7.10183 15.3638 6.96264 12.2726H0.955078C1.09881 18.6743 6.28026 23.8555 12.6819 23.9992Z" fill="white"/>
<path id="Vector_3" d="M18.9495 12.2726C18.8106 15.3638 16.3216 17.8527 13.2305 17.9917V23.9995C19.6319 23.8558 24.8133 18.6746 24.9571 12.2726H18.9495Z" fill="white"/>
<path id="Vector_4" d="M13.2305 0.000488281V6.00805C16.3216 6.14698 18.8106 8.63597 18.9495 11.7273H24.9573C24.8136 5.3254 19.6321 0.144217 13.2305 0.000488281Z" fill="white"/>
</g>
</svg>
