<svg width="26" height="24" viewBox="0 0 26 24" fill="none" xmlns="http://www.w3.org/2000/svg">
<g id="surroudings">
<path id="Vector" d="M12.4129 0C9.14131 0 6.48535 2.66105 6.48535 5.92761C6.48535 9.05676 11.782 15.9918 12.0059 16.2818C12.1026 16.409 12.2552 16.4803 12.4129 16.4803C12.5707 16.4803 12.7182 16.409 12.8149 16.2818C13.0388 15.9918 18.3405 9.05676 18.3405 5.92761C18.3405 2.66105 15.6795 0 12.4129 0ZM12.4129 8.80235C10.8255 8.80235 9.53819 7.50999 9.53819 5.92761C9.53819 4.34011 10.8255 3.05284 12.4129 3.05284C13.9953 3.05284 15.2826 4.34011 15.2826 5.92761C15.2826 7.50999 13.9953 8.80235 12.4129 8.80235Z" fill="white"/>
<path id="Vector_2" d="M13.6186 16.9027C13.3336 17.2792 12.8961 17.498 12.4127 17.498C11.9344 17.498 11.4816 17.2741 11.1966 16.8976C10.8558 16.46 8.98844 14.0075 7.47727 11.3465H6.10352V15.6764H7.85887C8.13874 15.6764 8.36768 15.9003 8.36768 16.1853C8.36768 16.4651 8.13874 16.6941 7.85887 16.6941H6.10352V18.0068H17.8315C18.091 18.0068 18.3047 18.2103 18.3301 18.4698V15.6968H16.5595C16.2797 15.6968 16.0507 15.4679 16.0507 15.188C16.0507 14.9031 16.2797 14.6792 16.5595 14.6792H18.3301V11.3465H17.3481C15.8319 14.0075 13.9595 16.4651 13.6186 16.9027Z" fill="white"/>
<path id="Vector_3" d="M24.8368 20.5429L22.6414 12.9085C22.4225 11.9876 21.6136 11.3465 20.6722 11.3465H19.3477V18.0088H21.3409C21.6219 18.0088 21.8497 18.2364 21.8497 18.5176V20.5429H24.8368Z" fill="white"/>
<path id="Vector_4" d="M17.3161 19.0259H8.36133V24H17.3161V19.0259Z" fill="white"/>
<path id="Vector_5" d="M3.28229 12.8882L1.81152 18.0088H5.08796V11.3599C4.21624 11.4279 3.48378 12.0391 3.28229 12.8882Z" fill="white"/>
<path id="Vector_6" d="M25.1208 21.56H21.3393C21.0583 21.56 20.8305 21.3324 20.8305 21.0512V19.0259H18.8373C18.5729 19.0259 18.3626 18.822 18.3379 18.5638V24H23.1536C23.7693 24 24.3392 23.7252 24.7259 23.247C25.1067 22.7709 25.2476 22.1568 25.1208 21.56Z" fill="white"/>
<path id="Vector_7" d="M1.18899 23.247C1.57569 23.7253 2.14555 24 2.76122 24H7.3484V19.0259H1.51712L0.797203 21.5323C0.659847 22.1378 0.802296 22.7636 1.18899 23.247Z" fill="white"/>
</g>
</svg>
