<svg width="25" height="24" viewBox="0 0 25 24" fill="none" xmlns="http://www.w3.org/2000/svg">
<g id="Movie">
<path id="play.rectangle" d="M5.6519 20.1401C4.73145 20.1401 4.03542 19.9072 3.56383 19.4413C3.09224 18.9754 2.85645 18.2879 2.85645 17.3788V6.9981C2.85645 6.08901 3.09224 5.40151 3.56383 4.9356C4.03542 4.46401 4.73145 4.22821 5.6519 4.22821H20.2428C21.1689 4.22821 21.8678 4.46401 22.3394 4.9356C22.811 5.40151 23.0468 6.08901 23.0468 6.9981V17.3788C23.0468 18.2879 22.811 18.9754 22.3394 19.4413C21.8678 19.9072 21.1689 20.1401 20.2428 20.1401H5.6519ZM5.75417 18.4697H20.1491C20.5411 18.4697 20.8422 18.3674 21.0525 18.1629C21.2627 17.9526 21.3678 17.643 21.3678 17.2339V7.14298C21.3678 6.73389 21.2627 6.42707 21.0525 6.22253C20.8422 6.0123 20.5411 5.90719 20.1491 5.90719H5.75417C5.35645 5.90719 5.05247 6.0123 4.84224 6.22253C4.6377 6.42707 4.53542 6.73389 4.53542 7.14298V17.2339C4.53542 17.643 4.6377 17.9526 4.84224 18.1629C5.05247 18.3674 5.35645 18.4697 5.75417 18.4697ZM11.4559 15.5208C11.3025 15.6117 11.1491 15.6515 10.9956 15.6401C10.8479 15.6231 10.7229 15.5663 10.6206 15.4697C10.5184 15.3674 10.4672 15.2339 10.4672 15.0691V9.29923C10.4672 9.13446 10.5184 9.00378 10.6206 8.90719C10.7229 8.8106 10.8508 8.75662 11.0042 8.74526C11.1633 8.72821 11.3138 8.7623 11.4559 8.84753L16.1945 11.6515C16.3309 11.7311 16.4218 11.8418 16.4672 11.9839C16.5127 12.1203 16.5127 12.2595 16.4672 12.4015C16.4275 12.5379 16.3366 12.6487 16.1945 12.7339L11.4559 15.5208Z" fill="white"/>
</g>
</svg>
