<svg width="22" height="8" viewBox="0 0 22 8" fill="none" xmlns="http://www.w3.org/2000/svg">
<path id="Vector" d="M10.9561 0.351562C10.5273 0.351562 0.456055 0.383506 0.456055 3.15393C0.456055 5.32888 6.59766 5.81321 9.21682 5.92073L8.35577 6.8159C8.12871 7.05118 8.12772 7.43475 8.35329 7.67211V7.67263C8.57886 7.90999 8.94579 7.91155 9.1726 7.67523L10.8226 5.96072C11.0495 5.72492 11.0696 5.32369 10.8636 5.06763C10.4468 4.54979 9.77255 3.71799 9.3537 3.20094C9.14676 2.94644 8.78108 2.91423 8.53712 3.13134C8.29342 3.34792 8.26336 3.72994 8.47055 3.98496L9.05311 4.70276C5.359 4.54564 3.0541 3.96522 2.10213 3.49362C1.81296 3.35052 1.80998 2.95345 2.09915 2.80932C3.24638 2.24033 6.31445 1.56252 10.9563 1.56252C15.5984 1.56252 18.6662 2.24059 19.8132 2.80932C20.1024 2.95293 20.0994 3.35052 19.8097 3.49362C18.816 3.98522 16.3531 4.59732 12.3711 4.72197C12.0516 4.7321 11.7965 5.00764 11.8024 5.34238C11.8082 5.67661 12.072 5.94306 12.392 5.93215C14.8019 5.85009 21.4561 5.41744 21.4561 3.15367C21.4558 0.383506 11.3848 0.351562 10.9561 0.351562Z" fill="white"/>
</svg>
